<svg xmlns="http://www.w3.org/2000/svg" viewBox="0 0 18 18" height="16" width="16"><path fill="#85a6ba" d="M6.3 4.9c.5.1 1.6-.5 2.3-.7-.4-.2-1.5-.6-1.9-.8-.1-.1-.3 0-.4.1l-.3 1c-.1.2.1.3.3.4zM3.6 17.3c1.5-.4 2.8-1.1 3.9-1.9.1-.1 2.9-2.3 4.3-3.4 1-.8 1.9-1.5 2.2-1.7l.2-.1.3-.2c2-1.5 3.4-2.4 3.5-3.4 0-.1 0-.3-.1-.4-.1-.2-.3-.4-.3-.4.1.2-5.5 5.1-7.3 6.8C4.1 18 1 17.2.8 17.1c-.1-.1.8.8 2.8.2z"/><path fill="#bf2929" d="M6.2 14.5c2.3-1.6 10.4-9.3 10.4-9.3v-.5c0-.5-.5-1-.9-1.5S13.9 1.1 13.3.8C12.8.5 12 .3 11.7.7c-.3.6-.3 2.3-1 2.8-1.1.9-4.4.5-4.8.8-.5.4-.2 1-.9 2.4-.4.6-2 3.4-2 3.4-.4.7-.4 1.1-.6 1.4-.5.8-1.8 2.7-2.2 3.4-.4.7-.2 1.3 0 1.7.3.3.5.4.5.4s1.5.1 5.5-2.5z"/><path fill="#f55c5c" d="M16.5 5s.1-.1 0-.3c0-.5-.4-1-.8-1.4-.2-.3-1-1.3-1.7-1.8-.3.4-2.1 2.4-2.6 3.4s-.2 2.8 0 3.5c.1.1 5.1-3.4 5.1-3.4z"/><path fill="#ccd6dd" d="M6.3 6.6l-.9-.4c-.2-.1-.3-.3-.2-.5.1-.2.3-.3.6-.2l.9.4c.2 0 .3.2.2.4-.1.2-.3.3-.4.3h-.2zm-.7 1.5l-.9-.5c-.2-.1-.3-.4-.2-.6.1-.2.4-.3.6-.2l.9.6c.2.1.3.3.2.6-.1.1-.3.2-.4.2-.1 0-.2-.1-.2-.1zm-1 1.4l-.8-.6c-.1-.1-.2-.4 0-.6.1-.2.4-.2.6-.1l.8.6c.2.1.2.4.1.6-.2.1-.3.2-.4.2-.1 0-.2-.1-.3-.1zm-1 1.3l-.6-.5c-.2-.2-.2-.4 0-.6.1-.2.4-.2.6-.1l.6.5c.2.1.2.4.1.6-.1.1-.2.2-.3.2-.2 0-.3-.1-.4-.1zm14.1-5c.1.1.1.5-.4 1.2-.4.5-2.7 2.3-3.5 2.9-.8.6-5.6 4.4-6.5 5.1-.9.7-2 1.3-3.6 1.8-1.7.6-2.7.2-2.9.1.5-.1 1.2-.3 1.9-.6.5-.2 1.3-.7 2.2-1.3.9-.6 2-1.6 2.7-2.2.7-.7 2.4-2.9 3.5-4S14 6.4 14.4 6c.5-.4 1.1-.8 1.5-.8.4-.1.7-.4.7-.4.3-.2.8.7 1.1 1z"/></svg>