<svg xmlns="http://www.w3.org/2000/svg" viewBox="0 0 18 18" height="16" width="16"><path fill="#f4900c" d="M17.5 9.5c0-1-.2-2-.5-2.9-.2 2.7-1.7 4.1-3.2 3.4-1.4-.6-.5-3-.4-4.1.1-1.9 0-4.1-3.4-5.9 1.4 2.8.2 4.5-1.2 4.6-1.5.1-2.8-1.3-2.3-3.5-1.7 1.2-1.7 3.2-1.2 4.5.5 1.4 0 2.5-1.3 2.6-1.4.1-2.2-1.5-1.5-4.2-1.3 1.5-2 3.4-2 5.5C.5 14.2 4.3 18 9 18s8.5-3.8 8.5-8.5z"/><path fill="#ffcc4d" d="M14.2 12c.1 1.5-1.3 2.1-2 1.9-1.1-.4-.8-1.1-1-2.6s-1.3-2.5-2.9-3c1.1 3.2-.6 4.3-1.5 4.5-.9.2-1.9 0-2-2C3.7 11.8 3 13.4 3 15v.5C4.6 17.1 6.7 18 9 18s4.4-.9 6-2.5V15c0-1.1-.3-2.1-.8-3z"/></svg>